<svg xmlns="http://www.w3.org/2000/svg" width="59" height="60" viewBox="0 0 59 60">
  <g id="Group_5272" data-name="Group 5272" transform="translate(1809 -3457)">
    <g id="Ellipse_104" data-name="Ellipse 104" transform="translate(-1809 3457)" fill="none" stroke="#fff" stroke-width="3">
      <ellipse cx="29.5" cy="30" rx="29.5" ry="30" stroke="none"/>
      <ellipse cx="29.5" cy="30" rx="28" ry="28.5" fill="none"/>
    </g>
    <g id="Polygon_2" data-name="Polygon 2" transform="translate(-1795 3500) rotate(-90)" fill="none">
      <path d="M13.069.735a.5.5,0,0,1,.862,0L26.558,22.247a.5.5,0,0,1-.431.753H.873a.5.5,0,0,1-.431-.753Z" stroke="none"/>
      <path d="M 13.49999523162842 5.926502227783203 L 5.239471435546875 19.99999618530273 L 21.76052474975586 19.99999618530273 L 13.49999523162842 5.926502227783203 M 13.49999332427979 0.4877471923828125 C 13.66729164123535 0.4877471923828125 13.83458518981934 0.5700454711914062 13.93120002746582 0.7346458435058594 L 26.55796051025391 22.24689483642578 C 26.75361061096191 22.58021545410156 26.51325035095215 22.99999618530273 26.12675094604492 22.99999618530273 L 0.8732395172119141 22.99999618530273 C 0.4867496490478516 22.99999618530273 0.2463893890380859 22.58021545410156 0.4420394897460938 22.24689483642578 L 13.06877994537354 0.7346553802490234 C 13.16539478302002 0.5700511932373047 13.33269596099854 0.4877471923828125 13.49999332427979 0.4877471923828125 Z" stroke="none" fill="#fff"/>
    </g>
  </g>
</svg>
