<svg xmlns="http://www.w3.org/2000/svg" width="59" height="67" viewBox="0 0 59 67">
  <g id="Group_5275" data-name="Group 5275" transform="translate(1681.884 -3405)">
    <path id="Union_1" data-name="Union 1" d="M18.017,55.494A29.513,29.513,0,0,1,20.884.089h0a1.992,1.992,0,0,1,.6-.089,1.451,1.451,0,0,1,1.6,1.412A1.52,1.52,0,0,1,22,2.874v.018a26.5,26.5,0,1,0,34,25.42A26.664,26.664,0,0,0,37,2.893V2.87a1.5,1.5,0,0,1-1.116-1.458A1.451,1.451,0,0,1,37.484,0a2.068,2.068,0,0,1,.4.038V.02A29.507,29.507,0,1,1,18.017,55.494Z" transform="translate(-1681.884 3414.188)" fill="#fff"/>
    <g id="Group_5274" data-name="Group 5274" transform="translate(5 -14)">
      <circle id="Ellipse_108" data-name="Ellipse 108" cx="1.5" cy="1.5" r="1.5" transform="translate(-1659 3419)" fill="#fff"/>
      <g id="Group_5273" data-name="Group 5273">
        <path id="Path_1976" data-name="Path 1976" d="M0-.562H3V29.5H0Z" transform="translate(-1659 3421)" fill="#fff"/>
        <circle id="Ellipse_109" data-name="Ellipse 109" cx="1.5" cy="1.5" r="1.5" transform="translate(-1659 3449)" fill="#fff"/>
      </g>
    </g>
  </g>
</svg>
